<svg id="visual" viewBox="0 0 1600 1080" width="1600" height="1080" xmlns="http://www.w3.org/2000/svg" xmlns:xlink="http://www.w3.org/1999/xlink" version="1.1"><rect x="0" y="0" width="1600" height="1080" fill="#ffffff"></rect><defs><linearGradient id="grad1_0" x1="32.5%" y1="100%" x2="100%" y2="0%"><stop offset="20.37037037037037%" stop-color="#ffffff" stop-opacity="1"></stop><stop offset="79.62962962962963%" stop-color="#ffffff" stop-opacity="1"></stop></linearGradient></defs><defs><linearGradient id="grad2_0" x1="0%" y1="100%" x2="67.5%" y2="0%"><stop offset="20.37037037037037%" stop-color="#ffffff" stop-opacity="1"></stop><stop offset="79.62962962962963%" stop-color="#ffffff" stop-opacity="1"></stop></linearGradient></defs><g transform="translate(1600, 1080)"><path d="M-627.4 0C-568.5 -63.6 -509.6 -127.1 -481.3 -199.4C-453.1 -271.6 -455.6 -352.5 -421.4 -421.4C-387.3 -490.4 -316.4 -547.3 -240.1 -579.6C-163.7 -611.9 -81.9 -619.7 0 -627.4L0 0Z" fill="#fb3640"></path></g><g transform="translate(0, 0)"><path d="M627.4 0C631 92.3 634.6 184.5 579.6 240.1C524.6 295.6 410.9 314.4 337.3 337.3C263.7 360.1 230.2 387 180.6 436.1C131.1 485.1 65.5 556.2 0 627.4L0 0Z" fill="#fb3640"></path></g></svg>